<svg xmlns="http://www.w3.org/2000/svg" viewBox="0 0 32 32" fill="none">
  <defs>
    <linearGradient id="bg" x1="0" y1="0" x2="32" y2="32" gradientUnits="userSpaceOnUse">
      <stop offset="0%" stop-color="#F472B6"/>
      <stop offset="100%" stop-color="#7C3AED"/>
    </linearGradient>
  </defs>

  <!-- Rounded background -->
  <rect width="32" height="32" rx="8" fill="url(#bg)"/>

  <!-- Shield outline -->
  <path d="M16 4 L26 7.5 L26 16 C26 21.5 21.5 26 16 28 C10.5 26 6 21.5 6 16 L6 7.5 Z"
        fill="white" opacity="0.18"/>

  <!-- Heart -->
  <path d="M16 22 C16 22 9 17 9 12.5 C9 10.3 10.8 8.5 13 8.5 C14.2 8.5 15.3 9.1 16 10 C16.7 9.1 17.8 8.5 19 8.5 C21.2 8.5 23 10.3 23 12.5 C23 17 16 22 16 22Z"
        fill="white"/>
</svg>
